PathFileType	4	(X/Y/Z)	/Users/itak/Documents/Research/Walk-IL/dataset/trc/00040_00004.trc
DataRate	CameraRate	NumFrames	NumMarkers	Units	OrigDataRate	OrigDataStartFrame	OrigNumFrames
100.000000	100.000000	4	54	mm	100.000000	182	487
Frame#	Time	RPSI			LPSI			L3			STRN			T10			C7			CLAV			RBAK			LBAK			LSHO			LUPA			LAEL			LAOL			LWTS			LWPS			LFRA			LIFD			LHPS			LHTS			RSHO			RUPA			RAEL			RAOL			RWTS			RWPS			RFRA			RIFD			RHTS			RHPS			RBHD			LFHD			RFHD			LBHD			LHIP			RHIP			RASI			LASI			LKNE			LTHI			LANK			LTIP			LTOE			LMT1			LMT5			LHEE			RKNE			RTHI			RANK			RTIP			RTOE			RMT1			RMT5			RHEE			*53			
		X1	Y1	Z1	X2	Y2	Z2	X3	Y3	Z3	X4	Y4	Z4	X5	Y5	Z5	X6	Y6	Z6	X7	Y7	Z7	X8	Y8	Z8	X9	Y9	Z9	X10	Y10	Z10	X11	Y11	Z11	X12	Y12	Z12	X13	Y13	Z13	X14	Y14	Z14	X15	Y15	Z15	X16	Y16	Z16	X17	Y17	Z17	X18	Y18	Z18	X19	Y19	Z19	X20	Y20	Z20	X21	Y21	Z21	X22	Y22	Z22	X23	Y23	Z23	X24	Y24	Z24	X25	Y25	Z25	X26	Y26	Z26	X27	Y27	Z27	X28	Y28	Z28	X29	Y29	Z29	X30	Y30	Z30	X31	Y31	Z31	X32	Y32	Z32	X33	Y33	Z33	X34	Y34	Z34	X35	Y35	Z35	X36	Y36	Z36	X37	Y37	Z37	X38	Y38	Z38	X39	Y39	Z39	X40	Y40	Z40	X41	Y41	Z41	X42	Y42	Z42	X43	Y43	Z43	X44	Y44	Z44	X45	Y45	Z45	X46	Y46	Z46	X47	Y47	Z47	X48	Y48	Z48	X49	Y49	Z49	X50	Y50	Z50	X51	Y51	Z51	X52	Y52	Z52	X53	Y53	Z53	X54	Y54	Z54	

183	1.82	-1084.730346679688	1063.932006835938	136.6473236083984	-1107.731201171875	1054.622802734375	-25.04557037353516	-1098.593872070312	1120.553588867188	42.41480255126953	-863.34423828125	1301.8701171875	25.8825855255127	-1115.1513671875	1263.395141601562	29.14898681640625	-1052.016967773438	1526.477294921875	4.56815767288208	-899.8775634765625	1429.662231445312	17.18012809753418	-1112.284545898438	1396.5205078125	89.89302825927734	-1070.850952148438	1482.454223632812	-91.93550109863281	-967.4288330078125	1483.236572265625	-164.9430847167969	-1002.853393554688	1355.916381835938	-238.1203002929688	-1010.469482421875	1136.493774414062	-257.7009887695312	-1067.227294921875	1129.08154296875	-168.1445922851562	-929.2486572265625	884.7998657226562	-190.5352478027344	-1004.502075195312	870.342041015625	-233.8238067626953	-1000.340148925781	1020.262145996094	-258.8034362792969	-908.4290161132812	701.037109375	-161.6262817382812	-972.9865112304688	779.90185546875	-228.8227691650391	-908.9976806640625	790.4129638671875	-198.6494903564453	-981.2159423828125	1514.750122070312	183.0199432373047	-1000.732971191406	1447.418212890625	255.4785003662109	-1053.423461914062	1183.66015625	287.0978393554688	-1051.093872070312	1152.54638671875	191.4468078613281	-947.5962524414062	911.8270874023438	271.9174499511719	-1015.902709960938	906.7758178710938	335.1085205078125	-1047.757934570312	1107.860717773438	305.8636169433594	-949.65087890625	725.4246826171875	266.2080993652344	-927.4263916015625	800.8362426757812	292.1800231933594	-984.095947265625	803.567626953125	340.1957702636719	-975.1178588867188	1693.586181640625	-83.19691467285156	-859.0210571289062	1732.241577148438	97.55883026123047	-821.2789306640625	1729.224243164062	6.675777435302734	-1023.829772949219	1696.254028320312	53.12661361694336	-1033.942016601562	943.033447265625	-139.8055419921875	-952.349853515625	956.7527465820312	227.1966705322266	-869.9094848632812	985.1549682617188	133.9120483398438	-904.3378295898438	985.694091796875	-98.64491271972656	-1037.08984375	502.0825500488281	-74.39813232421875	-1044.508911132812	639.182373046875	-112.1289520263672	-1204.351196289062	42.53514862060547	-36.64126586914062	-1154.077270507812	283.1105041503906	-70.73795318603516	-988.8397827148438	40.59553146362305	40.76061630249023	-1048.404174804688	50.66154861450195	51.29434967041016	-1078.54052734375	39.62862777709961	-52.11569595336914	-1276.217895507812	54.01054763793945	12.27463722229004	-790.8392944335938	554.5145874023438	171.5776977539062	-882.9578247070312	805.8697509765625	213.1100006103516	-857.872314453125	57.22657775878906	152.2325592041016	-795.4523315429688	422.3719177246094	172.7906799316406	-628.9205322265625	60.4704475402832	108.7481842041016	-693.1026611328125	61.889404296875	79.42642974853516	-710.236328125	57.40696716308594	174.7710876464844	-912.7728881835938	56.23577499389648	105.8402938842773	nan	nan	nan	
184	1.83	-1080.011108398438	1062.829956054688	137.1181335449219	-1103.215209960938	1053.821655273438	-24.52620506286621	-1093.958251953125	1119.74755859375	42.94952392578125	-858.33056640625	1300.868774414062	26.43557929992676	-1110.267333984375	1262.675415039062	29.55157089233398	-1046.590942382812	1525.621459960938	4.858534812927246	-894.7410888671875	1428.668579101562	17.65567207336426	-1107.238159179688	1395.847290039062	90.22486114501953	-1065.502563476562	1481.622192382812	-91.63326263427734	-962.0294189453125	1482.20654296875	-164.5489654541016	-997.5765380859375	1354.962890625	-237.7650299072266	-1005.44775390625	1135.58447265625	-257.47119140625	-1062.399169921875	1128.17919921875	-168.030517578125	-924.0794677734375	884.09326171875	-190.1284790039062	-999.2018432617188	869.4580078125	-233.5350494384766	-995.26416015625	1019.360290527344	-258.5585327148438	-902.9080810546875	700.3475341796875	-161.1297912597656	-967.5099487304688	779.1062622070312	-228.4687652587891	-903.5907592773438	789.7135620117188	-198.1814575195312	-976.0942993164062	1513.921875	183.3549346923828	-995.733154296875	1446.62451171875	255.8336029052734	-1048.803955078125	1182.9287109375	287.4487609863281	-1046.499267578125	1151.826782226562	191.8148803710938	-943.104736328125	911.0499877929688	272.11328125	-1011.331176757812	905.9703369140625	335.3744506835938	-1043.1923828125	1107.108032226562	306.19189453125	-945.1751098632812	724.609375	266.3004760742188	-922.902099609375	800.0474853515625	292.2720031738281	-979.6202392578125	802.7301635742188	340.3692932128906	-968.9017333984375	1692.687377929688	-83.05152893066406	-853.9934692382812	1731.103393554688	98.54366302490234	-815.6593017578125	1728.05419921875	7.937390327453613	-1018.532775878906	1695.357177734375	52.93825149536133	-1029.665893554688	942.462890625	-139.5009613037109	-947.4603881835938	955.7091064453125	227.2557830810547	-865.1461181640625	984.1891479492188	133.9671325683594	-899.8602294921875	984.8790893554688	-98.60304260253906	-1034.474365234375	501.7098999023438	-74.45580291748047	-1041.564697265625	638.8949584960938	-111.9325561523438	-1204.359497070312	42.70800018310547	-36.43974304199219	-1152.849243164062	283.2594604492188	-70.46395111083984	-988.8411865234375	40.61904525756836	40.69519805908203	-1048.39013671875	50.65747833251953	51.24329376220703	-1078.529907226562	39.57455825805664	-52.18440246582031	-1276.075927734375	54.55879592895508	12.58186435699463	-784.7648315429688	554.5916137695312	172.5267944335938	-877.9188232421875	805.23583984375	213.9534301757812	-838.8035888671875	56.29788589477539	150.8119354248047	-786.4381713867188	422.7523803710938	172.9806365966797	-609.9014282226562	63.02970504760742	107.0437240600586	-674.1318359375	63.70833587646484	77.85907745361328	-691.039794921875	58.58361053466797	173.2260589599609	-893.5157470703125	54.57501220703125	104.4045791625977	nan	nan	nan	
185	1.84	-1075.190185546875	1061.666748046875	137.6135101318359	-1098.58642578125	1052.98583984375	-23.97671890258789	-1089.202880859375	1118.890747070312	43.52895736694336	-853.2019653320312	1299.824462890625	27.04488372802734	-1105.273315429688	1261.90478515625	29.99081230163574	-1041.073608398438	1524.733520507812	5.202851295471191	-889.5033569335938	1427.624877929688	18.19816017150879	-1102.104248046875	1395.119995117188	90.58319854736328	-1060.016357421875	1480.746704101562	-91.28351593017578	-956.487548828125	1481.138671875	-164.0951995849609	-992.1345825195312	1353.964965820312	-237.3588714599609	-1000.226867675781	1134.628540039062	-257.1839294433594	-1057.3798828125	1127.22802734375	-167.8711090087891	-918.7501831054688	883.3198852539062	-189.6521301269531	-993.719970703125	868.5252075195312	-233.2028656005859	-989.9903564453125	1018.412414550781	-258.2584533691406	-897.2592163085938	699.6001586914062	-160.5649108886719	-961.8751220703125	778.2608032226562	-228.0635681152344	-898.0249633789062	788.954345703125	-197.6509094238281	-970.8788452148438	1513.048950195312	183.7537994384766	-990.6654663085938	1445.788208007812	256.2411804199219	-1044.10888671875	1182.151123046875	287.8446960449219	-1041.811889648438	1151.064208984375	192.229248046875	-938.474365234375	910.2523193359375	272.3410034179688	-1006.620361328125	905.1170654296875	335.6694030761719	-1038.530029296875	1106.30224609375	306.5718383789062	-940.5283813476562	723.7587890625	266.4008178710938	-918.1884765625	799.2503051757812	292.3930969238281	-974.9672241210938	801.8499755859375	340.569091796875	-962.564453125	1691.749633789062	-82.85295867919922	-848.8696899414062	1729.923461914062	99.583251953125	-809.9454956054688	1726.833984375	9.258566856384277	-1013.13818359375	1694.431396484375	52.78673553466797	-1025.262573242188	941.8845825195312	-139.1705780029297	-942.4982299804688	954.5438232421875	227.3262329101562	-860.2695922851562	983.1397705078125	134.0636749267578	-895.308349609375	984.0592041015625	-98.47075653076172	-1031.797973632812	501.3241882324219	-74.51169586181641	-1038.48486328125	638.5830078125	-111.7141494750977	-1204.355346679688	42.90525054931641	-36.20515823364258	-1151.59326171875	283.4219360351562	-70.18331909179688	-988.8394775390625	40.64253616333008	40.63166809082031	-1048.377563476562	50.6495246887207	51.20164489746094	-1078.520874023438	39.52766799926758	-52.24681854248047	-1275.9150390625	55.17958068847656	12.95366096496582	-778.860595703125	554.4554443359375	173.5662078857422	-872.909423828125	804.4287109375	214.924072265625	-819.9810180664062	55.48516082763672	149.2448577880859	-777.6373901367188	423.0104370117188	173.2290954589844	-591.153564453125	66.27865600585938	105.5407943725586	-655.3548583984375	66.06893157958984	76.40232849121094	-672.1580200195312	60.19811248779297	171.7552032470703	-874.4628295898438	52.98097991943359	102.7988510131836	nan	nan	nan	
186	1.85	-1070.26123046875	1060.447509765625	138.1375579833984	-1093.844116210938	1052.116821289062	-23.39792251586914	-1084.324462890625	1117.984741210938	44.15404510498047	-847.9532470703125	1298.739135742188	27.70793724060059	-1100.165283203125	1261.08447265625	30.46664237976074	-1035.468994140625	1523.810546875	5.600314140319824	-884.1648559570312	1426.53564453125	18.8089427947998	-1096.879638671875	1394.337158203125	90.97132873535156	-1054.394653320312	1479.830688476562	-90.88299560546875	-950.8031005859375	1480.037353515625	-163.5779724121094	-986.5309448242188	1352.92724609375	-236.9009857177734	-994.8074951171875	1133.6279296875	-256.8377075195312	-1052.162963867188	1126.230590820312	-167.662841796875	-913.2562255859375	882.479248046875	-189.1011352539062	-988.0492553710938	867.5452270507812	-232.8190155029297	-984.5115356445312	1017.420349121094	-257.8993225097656	-891.48583984375	698.7921142578125	-159.9246673583984	-956.0796508789062	777.3618774414062	-227.5974426269531	-892.302734375	788.1361083984375	-197.0528259277344	-965.5653686523438	1512.126098632812	184.2230529785156	-985.5258178710938	1444.903198242188	256.7039489746094	-1039.33740234375	1181.322143554688	288.2901611328125	-1037.031494140625	1150.253662109375	192.6929626464844	-933.7086791992188	909.4283447265625	272.6069641113281	-1001.778686523438	904.210693359375	335.9928283691406	-1033.772705078125	1105.437622070312	307.0071411132812	-935.7112426757812	722.8798217773438	266.5123901367188	-913.31494140625	798.4315185546875	292.5558776855469	-970.134033203125	800.9281616210938	340.7945251464844	-956.1155395507812	1690.770141601562	-82.587890625	-843.6514282226562	1728.69775390625	100.6791229248047	-804.137451171875	1725.564086914062	10.64112663269043	-1007.639343261719	1693.470092773438	52.68144989013672	-1020.742492675781	941.2989501953125	-138.8173370361328	-937.455078125	953.2598876953125	227.4223327636719	-855.2754516601562	982.012939453125	134.2064514160156	-890.6669311523438	983.2313232421875	-98.25579071044922	-1029.05859375	500.9280090332031	-74.56395721435547	-1035.256958007812	638.2484130859375	-111.4647827148438	-1204.336181640625	43.12957763671875	-35.93502807617188	-1150.300903320312	283.59765625	-69.89965057373047	-988.8294067382812	40.66439819335938	40.56903839111328	-1048.36181640625	50.6385498046875	51.16927719116211	-1078.512084960938	39.48931121826172	-52.30022811889648	-1275.7412109375	55.86641311645508	13.3778018951416	-773.111572265625	554.1051025390625	174.6497802734375	-867.93408203125	803.4449462890625	216.0207061767578	-801.5010986328125	54.77993774414062	147.5405426025391	-769.0606079101562	423.1452026367188	173.5177917480469	-572.7727661132812	70.24560546875	104.4062576293945	-636.8458862304688	68.99421691894531	75.17497253417969	-653.7280883789062	62.26094055175781	170.4637145996094	-855.6804809570312	51.46335983276367	101.0104904174805	nan	nan	nan	
